<svg width="46" height="46" viewBox="0 0 46 46" fill="none" xmlns="http://www.w3.org/2000/svg">
<circle cx="23" cy="23" r="22" fill="#C4C4C4" fill-opacity="0.26" stroke="#58A058" stroke-width="2"/>
<path d="M31.1249 15H13.8749C12.2904 15 11 16.2623 11 17.8126V30.1874C11 31.7377 12.2904 33 13.8749 33H31.1249C32.7096 33 34 31.7377 34 30.1874V17.8126C34 16.2623 32.7096 15 31.1249 15ZM13.8749 17.2501H31.1249C31.4424 17.2501 31.6999 17.502 31.6999 17.8126V25.7989L28.0672 21.6521C27.6818 21.21 27.124 20.9738 26.525 20.9604C25.9292 20.9637 25.3704 21.2224 24.9886 21.6702L20.7174 26.6853L19.326 25.3274C18.5395 24.558 17.2594 24.558 16.474 25.3274L13.3001 28.4313V17.8126C13.3001 17.502 13.5576 17.2501 13.8749 17.2501Z" fill="#979797"/>
</svg>
