<svg width="22" height="22" viewBox="0 0 22 22" fill="none" xmlns="http://www.w3.org/2000/svg">
<path fill-rule="evenodd" clip-rule="evenodd" d="M1.41 0L0 1.41L2.75 4.16H2.01C0.9 4.16 0.02 5.05 0.02 6.16L0.01 17.16C0.01 18.27 0.9 19.16 2.01 19.16H17.75L19.75 21.16L21.16 19.75L1.41 0ZM8.01 2.16H12.01V4.16H8.41L10.41 6.16H18.01V13.76L20.01 15.76V6.16C20.01 5.05 19.12 4.16 18.01 4.16H14.01V2.16C14.01 1.05 13.12 0.16 12.01 0.16H8.01C7.02 0.16 6.21 0.86 6.05 1.8L8.01 3.76V2.16ZM2.01 6.16V17.16H15.75L4.75 6.16H2.01Z" fill="#007945"/>
</svg>
