<svg width="28" height="28" viewBox="0 0 28 28" fill="none" xmlns="http://www.w3.org/2000/svg">
<path d="M16.2559 25.6157C16.0267 26.0083 15.6979 26.3343 15.3022 26.5608C14.9066 26.7874 14.458 26.9067 14.0014 26.9067C13.5448 26.9067 13.0962 26.7874 12.7005 26.5608C12.3049 26.3343 11.976 26.0083 11.7469 25.6157M27.033 20.4334H0.969727C2.00659 20.4334 3.00098 20.0239 3.73416 19.295C4.46733 18.5662 4.87922 17.5776 4.87922 16.5467V10.0689C4.87922 7.6637 5.8403 5.35698 7.55104 3.65623C9.26178 1.95547 11.582 1 14.0014 1C16.4207 1 18.741 1.95547 20.4517 3.65623C22.1625 5.35698 23.1235 7.6637 23.1235 10.0689V16.5467C23.1235 17.5776 23.5354 18.5662 24.2686 19.295C25.0018 20.0239 25.9962 20.4334 27.033 20.4334Z" stroke="#006350" stroke-width="1.5" stroke-linecap="round" stroke-linejoin="round"/>
</svg>
