<svg width="24" height="24" viewBox="0 0 24 24" fill="none" xmlns="http://www.w3.org/2000/svg">
<path fill-rule="evenodd" clip-rule="evenodd" d="M20 8.68994V3.99994H15.31L12 0.689941L8.69 3.99994H4V8.68994L0.690002 11.9999L4 15.3099V19.9999H8.69L12 23.3099L15.31 19.9999H20V15.3099L23.31 11.9999L20 8.68994ZM18 14.4799V17.9999H14.48L12 20.4799L9.52 17.9999H6V14.4799L3.52 11.9999L6 9.51994V5.99994H9.52L12 3.51994L14.48 5.99994H18V9.51994L20.48 11.9999L18 14.4799ZM6 11.9999C6 8.68994 8.69 5.99994 12 5.99994C15.31 5.99994 18 8.68994 18 11.9999C18 15.3099 15.31 17.9999 12 17.9999C8.69 17.9999 6 15.3099 6 11.9999ZM12 15.9999C9.79 15.9999 8 14.2099 8 11.9999C8 9.78994 9.79 7.99994 12 7.99994C14.21 7.99994 16 9.78994 16 11.9999C16 14.2099 14.21 15.9999 12 15.9999ZM9.5 11.9999C9.5 10.6192 10.6193 9.49994 12 9.49994C13.3807 9.49994 14.5 10.6192 14.5 11.9999C14.5 13.3807 13.3807 14.4999 12 14.4999C10.6193 14.4999 9.5 13.3807 9.5 11.9999Z" fill="#219653"/>
</svg>
